<mxfile host="Electron" agent="Mozilla/5.0 (X11; Linux x86_64) AppleWebKit/537.36 (KHTML, like Gecko) draw.io/26.0.9 Chrome/128.0.6613.186 Electron/32.2.5 Safari/537.36" version="26.0.9">
  <diagram name="Page-1" id="2LVzaOrjmjYztdDnIZuz">
    <mxGraphModel dx="2260" dy="803" grid="1" gridSize="10" guides="1" tooltips="1" connect="1" arrows="1" fold="1" page="1" pageScale="1" pageWidth="850" pageHeight="1100" math="1" shadow="0">
      <root>
        <mxCell id="0" />
        <mxCell id="1" parent="0" />
        <mxCell id="vI8XusZQqPFiMbTaMv4Y-12" style="edgeStyle=orthogonalEdgeStyle;rounded=0;orthogonalLoop=1;jettySize=auto;html=1;entryX=1;entryY=0.5;entryDx=0;entryDy=0;" parent="1" source="vI8XusZQqPFiMbTaMv4Y-1" target="vI8XusZQqPFiMbTaMv4Y-10" edge="1">
          <mxGeometry relative="1" as="geometry" />
        </mxCell>
        <mxCell id="vI8XusZQqPFiMbTaMv4Y-31" style="edgeStyle=orthogonalEdgeStyle;rounded=0;orthogonalLoop=1;jettySize=auto;html=1;entryX=1;entryY=0.5;entryDx=0;entryDy=0;exitX=0.5;exitY=0;exitDx=0;exitDy=0;" parent="1" source="vI8XusZQqPFiMbTaMv4Y-1" target="vI8XusZQqPFiMbTaMv4Y-29" edge="1">
          <mxGeometry relative="1" as="geometry" />
        </mxCell>
        <mxCell id="vI8XusZQqPFiMbTaMv4Y-1" value="Env" style="rounded=1;whiteSpace=wrap;html=1;" parent="1" vertex="1">
          <mxGeometry x="190" y="175" width="40" height="40" as="geometry" />
        </mxCell>
        <mxCell id="vI8XusZQqPFiMbTaMv4Y-48" style="edgeStyle=orthogonalEdgeStyle;rounded=0;orthogonalLoop=1;jettySize=auto;html=1;entryX=0.25;entryY=0;entryDx=0;entryDy=0;" parent="1" source="vI8XusZQqPFiMbTaMv4Y-10" target="vI8XusZQqPFiMbTaMv4Y-13" edge="1">
          <mxGeometry relative="1" as="geometry">
            <Array as="points">
              <mxPoint x="-352" y="180" />
              <mxPoint x="-352" y="245" />
            </Array>
          </mxGeometry>
        </mxCell>
        <mxCell id="vI8XusZQqPFiMbTaMv4Y-49" style="edgeStyle=orthogonalEdgeStyle;rounded=0;orthogonalLoop=1;jettySize=auto;html=1;entryX=0.75;entryY=0;entryDx=0;entryDy=0;exitX=0;exitY=0.75;exitDx=0;exitDy=0;" parent="1" source="vI8XusZQqPFiMbTaMv4Y-10" target="vI8XusZQqPFiMbTaMv4Y-14" edge="1">
          <mxGeometry relative="1" as="geometry" />
        </mxCell>
        <mxCell id="vI8XusZQqPFiMbTaMv4Y-10" value="$$[S_1, S_2, S_3, S_4]$$&lt;div&gt;&lt;br&gt;&lt;/div&gt;" style="shape=process;whiteSpace=wrap;html=1;backgroundOutline=1;size=0.0625;labelPosition=center;verticalLabelPosition=middle;align=center;verticalAlign=top;" parent="1" vertex="1">
          <mxGeometry x="-30" y="170" width="120" height="50" as="geometry" />
        </mxCell>
        <mxCell id="vI8XusZQqPFiMbTaMv4Y-15" style="edgeStyle=orthogonalEdgeStyle;rounded=0;orthogonalLoop=1;jettySize=auto;html=1;entryX=0;entryY=0.5;entryDx=0;entryDy=0;" parent="1" source="vI8XusZQqPFiMbTaMv4Y-13" target="vI8XusZQqPFiMbTaMv4Y-16" edge="1">
          <mxGeometry relative="1" as="geometry">
            <mxPoint x="-190" y="250" as="targetPoint" />
          </mxGeometry>
        </mxCell>
        <mxCell id="vI8XusZQqPFiMbTaMv4Y-40" style="edgeStyle=orthogonalEdgeStyle;rounded=0;orthogonalLoop=1;jettySize=auto;html=1;entryX=0.5;entryY=1;entryDx=0;entryDy=0;" parent="1" source="vI8XusZQqPFiMbTaMv4Y-13" target="vI8XusZQqPFiMbTaMv4Y-39" edge="1">
          <mxGeometry relative="1" as="geometry">
            <Array as="points">
              <mxPoint x="-460" y="260" />
            </Array>
          </mxGeometry>
        </mxCell>
        <mxCell id="vI8XusZQqPFiMbTaMv4Y-13" value="Worker 1" style="rounded=1;whiteSpace=wrap;html=1;" parent="1" vertex="1">
          <mxGeometry x="-370" y="245" width="70" height="30" as="geometry" />
        </mxCell>
        <mxCell id="vI8XusZQqPFiMbTaMv4Y-18" style="edgeStyle=orthogonalEdgeStyle;rounded=0;orthogonalLoop=1;jettySize=auto;html=1;entryX=0;entryY=0.5;entryDx=0;entryDy=0;" parent="1" source="vI8XusZQqPFiMbTaMv4Y-14" target="vI8XusZQqPFiMbTaMv4Y-17" edge="1">
          <mxGeometry relative="1" as="geometry" />
        </mxCell>
        <mxCell id="vI8XusZQqPFiMbTaMv4Y-44" style="edgeStyle=orthogonalEdgeStyle;rounded=0;orthogonalLoop=1;jettySize=auto;html=1;entryX=1;entryY=0.5;entryDx=0;entryDy=0;" parent="1" source="vI8XusZQqPFiMbTaMv4Y-14" target="vI8XusZQqPFiMbTaMv4Y-43" edge="1">
          <mxGeometry relative="1" as="geometry" />
        </mxCell>
        <mxCell id="vI8XusZQqPFiMbTaMv4Y-14" value="Worker 2" style="rounded=1;whiteSpace=wrap;html=1;" parent="1" vertex="1">
          <mxGeometry x="-370" y="312.5" width="70" height="30" as="geometry" />
        </mxCell>
        <mxCell id="vI8XusZQqPFiMbTaMv4Y-28" style="edgeStyle=orthogonalEdgeStyle;rounded=0;orthogonalLoop=1;jettySize=auto;html=1;entryX=0;entryY=0.25;entryDx=0;entryDy=0;exitX=1;exitY=0.5;exitDx=0;exitDy=0;" parent="1" source="vI8XusZQqPFiMbTaMv4Y-16" target="vI8XusZQqPFiMbTaMv4Y-22" edge="1">
          <mxGeometry relative="1" as="geometry">
            <Array as="points">
              <mxPoint x="-60" y="260" />
              <mxPoint x="-60" y="303" />
              <mxPoint x="-30" y="303" />
            </Array>
          </mxGeometry>
        </mxCell>
        <mxCell id="vI8XusZQqPFiMbTaMv4Y-16" value="$$[(a_1, t_1), (a_2, t_3), (a_3, t_4)]$$" style="rounded=1;whiteSpace=wrap;html=1;" parent="1" vertex="1">
          <mxGeometry x="-260" y="240" width="170" height="40" as="geometry" />
        </mxCell>
        <mxCell id="vI8XusZQqPFiMbTaMv4Y-25" style="edgeStyle=orthogonalEdgeStyle;rounded=0;orthogonalLoop=1;jettySize=auto;html=1;entryX=0;entryY=0.75;entryDx=0;entryDy=0;" parent="1" source="vI8XusZQqPFiMbTaMv4Y-17" target="vI8XusZQqPFiMbTaMv4Y-22" edge="1">
          <mxGeometry relative="1" as="geometry" />
        </mxCell>
        <mxCell id="vI8XusZQqPFiMbTaMv4Y-17" value="$$[(a_1, t_3), (a_2, t_4)]$$" style="rounded=1;whiteSpace=wrap;html=1;" parent="1" vertex="1">
          <mxGeometry x="-235" y="307.5" width="120" height="40" as="geometry" />
        </mxCell>
        <mxCell id="vI8XusZQqPFiMbTaMv4Y-26" style="edgeStyle=orthogonalEdgeStyle;rounded=0;orthogonalLoop=1;jettySize=auto;html=1;entryX=0.5;entryY=1;entryDx=0;entryDy=0;" parent="1" source="vI8XusZQqPFiMbTaMv4Y-22" target="vI8XusZQqPFiMbTaMv4Y-1" edge="1">
          <mxGeometry relative="1" as="geometry" />
        </mxCell>
        <mxCell id="vI8XusZQqPFiMbTaMv4Y-22" value="$$[(a^{1}_1), (), (a^{1}_2, a^{2}_3), (a^1_3, a^2_2)]$$&lt;div&gt;&lt;br&gt;&lt;/div&gt;" style="shape=process;whiteSpace=wrap;html=1;backgroundOutline=1;size=0.0625;labelPosition=center;verticalLabelPosition=middle;align=center;verticalAlign=top;" parent="1" vertex="1">
          <mxGeometry x="-30" y="290" width="190" height="50" as="geometry" />
        </mxCell>
        <mxCell id="vI8XusZQqPFiMbTaMv4Y-33" style="edgeStyle=orthogonalEdgeStyle;rounded=0;orthogonalLoop=1;jettySize=auto;html=1;entryX=0.5;entryY=0;entryDx=0;entryDy=0;" parent="1" source="vI8XusZQqPFiMbTaMv4Y-29" target="vI8XusZQqPFiMbTaMv4Y-38" edge="1">
          <mxGeometry relative="1" as="geometry">
            <mxPoint x="-230" y="95" as="targetPoint" />
            <Array as="points">
              <mxPoint x="-460" y="95" />
            </Array>
          </mxGeometry>
        </mxCell>
        <mxCell id="vI8XusZQqPFiMbTaMv4Y-51" style="edgeStyle=orthogonalEdgeStyle;rounded=0;orthogonalLoop=1;jettySize=auto;html=1;entryX=0.5;entryY=0;entryDx=0;entryDy=0;" parent="1" source="vI8XusZQqPFiMbTaMv4Y-29" target="vI8XusZQqPFiMbTaMv4Y-50" edge="1">
          <mxGeometry relative="1" as="geometry" />
        </mxCell>
        <mxCell id="vI8XusZQqPFiMbTaMv4Y-29" value="$$[S&#39;_1, S&#39;_2]$$&lt;div&gt;&lt;br&gt;&lt;/div&gt;" style="shape=process;whiteSpace=wrap;html=1;backgroundOutline=1;size=0.0625;labelPosition=center;verticalLabelPosition=middle;align=center;verticalAlign=top;" parent="1" vertex="1">
          <mxGeometry x="-30" y="70" width="120" height="50" as="geometry" />
        </mxCell>
        <mxCell id="vI8XusZQqPFiMbTaMv4Y-30" value="State Consistency&lt;div&gt;Buffer&lt;/div&gt;" style="text;html=1;align=center;verticalAlign=middle;whiteSpace=wrap;rounded=0;" parent="1" vertex="1">
          <mxGeometry x="-22.5" y="30" width="105" height="30" as="geometry" />
        </mxCell>
        <mxCell id="vI8XusZQqPFiMbTaMv4Y-35" value="" style="edgeStyle=orthogonalEdgeStyle;rounded=0;orthogonalLoop=1;jettySize=auto;html=1;entryX=0.25;entryY=1;entryDx=0;entryDy=0;endArrow=none;startFill=0;" parent="1" source="vI8XusZQqPFiMbTaMv4Y-34" target="vI8XusZQqPFiMbTaMv4Y-29" edge="1">
          <mxGeometry relative="1" as="geometry" />
        </mxCell>
        <mxCell id="vI8XusZQqPFiMbTaMv4Y-74" style="edgeStyle=orthogonalEdgeStyle;rounded=0;orthogonalLoop=1;jettySize=auto;html=1;entryX=1;entryY=0.5;entryDx=0;entryDy=0;" parent="1" source="vI8XusZQqPFiMbTaMv4Y-37" target="vI8XusZQqPFiMbTaMv4Y-71" edge="1">
          <mxGeometry relative="1" as="geometry" />
        </mxCell>
        <mxCell id="vI8XusZQqPFiMbTaMv4Y-37" value="$$(s_1, a_1, r_1), \ldots, (s_n, a_n, r_n)$$" style="rounded=1;whiteSpace=wrap;html=1;" parent="1" vertex="1">
          <mxGeometry x="-680" y="182.5" width="180" height="35" as="geometry" />
        </mxCell>
        <mxCell id="vI8XusZQqPFiMbTaMv4Y-52" style="edgeStyle=orthogonalEdgeStyle;rounded=0;orthogonalLoop=1;jettySize=auto;html=1;entryX=0.5;entryY=0;entryDx=0;entryDy=0;" parent="1" source="vI8XusZQqPFiMbTaMv4Y-38" target="vI8XusZQqPFiMbTaMv4Y-39" edge="1">
          <mxGeometry relative="1" as="geometry" />
        </mxCell>
        <mxCell id="vI8XusZQqPFiMbTaMv4Y-38" value="Env" style="rounded=1;whiteSpace=wrap;html=1;" parent="1" vertex="1">
          <mxGeometry x="-480" y="115" width="40" height="40" as="geometry" />
        </mxCell>
        <mxCell id="vI8XusZQqPFiMbTaMv4Y-42" style="edgeStyle=orthogonalEdgeStyle;rounded=0;orthogonalLoop=1;jettySize=auto;html=1;entryX=1;entryY=0.5;entryDx=0;entryDy=0;" parent="1" source="vI8XusZQqPFiMbTaMv4Y-39" target="vI8XusZQqPFiMbTaMv4Y-37" edge="1">
          <mxGeometry relative="1" as="geometry" />
        </mxCell>
        <mxCell id="vI8XusZQqPFiMbTaMv4Y-39" value="&lt;font style=&quot;font-size: 36px;&quot;&gt;+&lt;/font&gt;" style="ellipse;whiteSpace=wrap;html=1;aspect=fixed;" parent="1" vertex="1">
          <mxGeometry x="-475" y="185" width="30" height="30" as="geometry" />
        </mxCell>
        <mxCell id="vI8XusZQqPFiMbTaMv4Y-47" style="edgeStyle=orthogonalEdgeStyle;rounded=0;orthogonalLoop=1;jettySize=auto;html=1;entryX=1;entryY=0.5;entryDx=0;entryDy=0;" parent="1" source="vI8XusZQqPFiMbTaMv4Y-43" target="vI8XusZQqPFiMbTaMv4Y-46" edge="1">
          <mxGeometry relative="1" as="geometry" />
        </mxCell>
        <mxCell id="vI8XusZQqPFiMbTaMv4Y-43" value="&lt;font style=&quot;font-size: 36px;&quot;&gt;+&lt;/font&gt;" style="ellipse;whiteSpace=wrap;html=1;aspect=fixed;" parent="1" vertex="1">
          <mxGeometry x="-430" y="312.5" width="30" height="30" as="geometry" />
        </mxCell>
        <mxCell id="vI8XusZQqPFiMbTaMv4Y-73" style="edgeStyle=orthogonalEdgeStyle;rounded=0;orthogonalLoop=1;jettySize=auto;html=1;entryX=1;entryY=0.5;entryDx=0;entryDy=0;" parent="1" source="vI8XusZQqPFiMbTaMv4Y-46" target="vI8XusZQqPFiMbTaMv4Y-72" edge="1">
          <mxGeometry relative="1" as="geometry" />
        </mxCell>
        <mxCell id="vI8XusZQqPFiMbTaMv4Y-46" value="$$(s_1, a_1, r_1), \ldots, (s_n, a_n, r_n)$$" style="rounded=1;whiteSpace=wrap;html=1;" parent="1" vertex="1">
          <mxGeometry x="-680" y="310" width="180" height="35" as="geometry" />
        </mxCell>
        <mxCell id="vI8XusZQqPFiMbTaMv4Y-53" style="edgeStyle=orthogonalEdgeStyle;rounded=0;orthogonalLoop=1;jettySize=auto;html=1;entryX=0.5;entryY=0;entryDx=0;entryDy=0;" parent="1" source="vI8XusZQqPFiMbTaMv4Y-50" target="vI8XusZQqPFiMbTaMv4Y-43" edge="1">
          <mxGeometry relative="1" as="geometry" />
        </mxCell>
        <mxCell id="vI8XusZQqPFiMbTaMv4Y-50" value="Env" style="rounded=1;whiteSpace=wrap;html=1;" parent="1" vertex="1">
          <mxGeometry x="-435" y="115" width="40" height="40" as="geometry" />
        </mxCell>
        <mxCell id="vI8XusZQqPFiMbTaMv4Y-62" value="" style="swimlane;startSize=0;" parent="1" vertex="1">
          <mxGeometry x="-80" y="60" width="340" height="310" as="geometry" />
        </mxCell>
        <mxCell id="vI8XusZQqPFiMbTaMv4Y-21" value="Action Buffer" style="text;html=1;align=center;verticalAlign=middle;whiteSpace=wrap;rounded=0;" parent="vI8XusZQqPFiMbTaMv4Y-62" vertex="1">
          <mxGeometry x="102.5" y="197.5" width="85" height="30" as="geometry" />
        </mxCell>
        <mxCell id="vI8XusZQqPFiMbTaMv4Y-11" value="State Queue" style="text;html=1;align=center;verticalAlign=middle;whiteSpace=wrap;rounded=0;" parent="vI8XusZQqPFiMbTaMv4Y-62" vertex="1">
          <mxGeometry x="67.5" y="80" width="85" height="30" as="geometry" />
        </mxCell>
        <mxCell id="vI8XusZQqPFiMbTaMv4Y-64" value="&lt;b&gt;Environments&lt;/b&gt;" style="text;html=1;align=center;verticalAlign=middle;whiteSpace=wrap;rounded=0;" parent="1" vertex="1">
          <mxGeometry x="-40" y="370" width="240" height="30" as="geometry" />
        </mxCell>
        <mxCell id="vI8XusZQqPFiMbTaMv4Y-66" value="" style="swimlane;startSize=0;" parent="1" vertex="1">
          <mxGeometry x="-390" y="215" width="110" height="160" as="geometry" />
        </mxCell>
        <mxCell id="vI8XusZQqPFiMbTaMv4Y-67" value="&lt;span style=&quot;font-weight: 700; text-wrap-mode: nowrap;&quot;&gt;Worker Array&lt;/span&gt;" style="text;html=1;align=center;verticalAlign=middle;whiteSpace=wrap;rounded=0;" parent="1" vertex="1">
          <mxGeometry x="-380" y="375" width="90" height="30" as="geometry" />
        </mxCell>
        <mxCell id="vI8XusZQqPFiMbTaMv4Y-68" value="" style="swimlane;startSize=0;" parent="1" vertex="1">
          <mxGeometry x="-700" y="165" width="220" height="200" as="geometry" />
        </mxCell>
        <mxCell id="vI8XusZQqPFiMbTaMv4Y-69" style="edgeStyle=orthogonalEdgeStyle;rounded=0;orthogonalLoop=1;jettySize=auto;html=1;exitX=0.5;exitY=1;exitDx=0;exitDy=0;" parent="1" source="vI8XusZQqPFiMbTaMv4Y-46" target="vI8XusZQqPFiMbTaMv4Y-46" edge="1">
          <mxGeometry relative="1" as="geometry" />
        </mxCell>
        <mxCell id="vI8XusZQqPFiMbTaMv4Y-70" value="&lt;span style=&quot;text-wrap-mode: nowrap;&quot;&gt;&lt;b&gt;Vectorized Replay Buffers&lt;/b&gt;&lt;/span&gt;" style="text;html=1;align=center;verticalAlign=middle;whiteSpace=wrap;rounded=0;" parent="1" vertex="1">
          <mxGeometry x="-670" y="365" width="160" height="30" as="geometry" />
        </mxCell>
        <mxCell id="vI8XusZQqPFiMbTaMv4Y-71" value="Agent 1" style="ellipse;whiteSpace=wrap;html=1;aspect=fixed;fontStyle=1" parent="1" vertex="1">
          <mxGeometry x="-830" y="170" width="60" height="60" as="geometry" />
        </mxCell>
        <mxCell id="vI8XusZQqPFiMbTaMv4Y-72" value="Agent 2" style="ellipse;whiteSpace=wrap;html=1;aspect=fixed;fontStyle=1" parent="1" vertex="1">
          <mxGeometry x="-830" y="297.5" width="60" height="60" as="geometry" />
        </mxCell>
        <mxCell id="vI8XusZQqPFiMbTaMv4Y-75" value="Aggregated GPI" style="text;html=1;align=center;verticalAlign=middle;whiteSpace=wrap;rounded=0;fontStyle=1" parent="1" vertex="1">
          <mxGeometry x="-830" y="127.5" width="110" height="15" as="geometry" />
        </mxCell>
        <mxCell id="PBgASOtGtI6oUqpLYzFL-4" value="" style="group" parent="1" vertex="1" connectable="0">
          <mxGeometry x="-310" y="110" width="220" height="59" as="geometry" />
        </mxCell>
        <mxCell id="vI8XusZQqPFiMbTaMv4Y-34" value="&lt;span style=&quot;font-size: x-small; background-color: transparent; color: light-dark(rgb(0, 0, 0), rgb(255, 255, 255));&quot;&gt;&lt;span style=&quot;white-space: pre;&quot;&gt;&#x9;&lt;/span&gt;contains enough information to rebuild the environment to replicate the distribution from where&lt;/span&gt;&lt;span style=&quot;font-size: x-small; background-color: transparent; color: light-dark(rgb(0, 0, 0), rgb(255, 255, 255));&quot;&gt;&amp;nbsp;&lt;span style=&quot;white-space: pre;&quot;&gt;&#x9;&lt;/span&gt;&lt;/span&gt;&lt;span style=&quot;font-size: x-small; background-color: transparent; color: light-dark(rgb(0, 0, 0), rgb(255, 255, 255));&quot;&gt;was sampled.&lt;/span&gt;" style="text;html=1;whiteSpace=wrap;overflow=hidden;rounded=0;" parent="PBgASOtGtI6oUqpLYzFL-4" vertex="1">
          <mxGeometry width="220" height="59" as="geometry" />
        </mxCell>
        <mxCell id="PBgASOtGtI6oUqpLYzFL-2" value="&lt;span style=&quot;font-size: x-small;&quot;&gt;$$S&#39;_n$$&lt;/span&gt;" style="text;html=1;align=left;verticalAlign=middle;whiteSpace=wrap;rounded=0;" parent="PBgASOtGtI6oUqpLYzFL-4" vertex="1">
          <mxGeometry x="4" width="20" height="29" as="geometry" />
        </mxCell>
        <mxCell id="PBgASOtGtI6oUqpLYzFL-3" value="&lt;span style=&quot;color: light-dark(rgb(0, 0, 0), rgb(255, 255, 255)); text-align: left; background-color: transparent; font-size: x-small;&quot;&gt;&amp;nbsp;&lt;/span&gt;&lt;span style=&quot;color: light-dark(rgb(0, 0, 0), rgb(255, 255, 255)); text-align: left; background-color: transparent; font-size: x-small;&quot;&gt;$$S_n$$&lt;/span&gt;" style="text;html=1;align=center;verticalAlign=middle;whiteSpace=wrap;rounded=0;" parent="PBgASOtGtI6oUqpLYzFL-4" vertex="1">
          <mxGeometry x="27" y="31" width="25" height="10" as="geometry" />
        </mxCell>
      </root>
    </mxGraphModel>
  </diagram>
</mxfile>
